<svg xmlns="http://www.w3.org/2000/svg" viewBox="0 0 640 640" role="img" aria-labelledby="title desc">
  <title id="title">Store product image unavailable</title>
  <desc id="desc">Fallback illustration for store products in AgroVision AI.</desc>
  <defs>
    <linearGradient id="bg" x1="0" y1="0" x2="1" y2="1">
      <stop offset="0%" stop-color="#eef8f1"/>
      <stop offset="55%" stop-color="#e4f4ff"/>
      <stop offset="100%" stop-color="#f8fbff"/>
    </linearGradient>
    <linearGradient id="card" x1="0" y1="0" x2="1" y2="1">
      <stop offset="0%" stop-color="#ffffff"/>
      <stop offset="100%" stop-color="#f2f8ff"/>
    </linearGradient>
    <linearGradient id="bag" x1="0" y1="0" x2="0" y2="1">
      <stop offset="0%" stop-color="#2da26b"/>
      <stop offset="100%" stop-color="#1d7d59"/>
    </linearGradient>
  </defs>
  <rect width="640" height="640" rx="48" fill="url(#bg)"/>
  <circle cx="520" cy="110" r="68" fill="#d8ecff"/>
  <circle cx="120" cy="520" r="90" fill="#dff2df"/>
  <rect x="96" y="110" width="448" height="420" rx="38" fill="url(#card)" stroke="#cfe0f1" stroke-width="10"/>
  <rect x="228" y="164" width="184" height="228" rx="22" fill="url(#bag)"/>
  <path d="M255 202c20-32 111-32 131 0" fill="none" stroke="#d2f6e0" stroke-linecap="round" stroke-width="18"/>
  <rect x="262" y="232" width="116" height="22" rx="11" fill="#d2f6e0"/>
  <circle cx="285" cy="302" r="28" fill="#86d38f"/>
  <circle cx="351" cy="302" r="28" fill="#6ac07d"/>
  <path d="M318 294c10-29 34-45 62-46-10 28-31 47-62 46Z" fill="#b7ebc1"/>
  <rect x="182" y="428" width="276" height="18" rx="9" fill="#d5e4f3"/>
  <rect x="210" y="466" width="220" height="18" rx="9" fill="#dfeaf6"/>
  <text x="320" y="566" text-anchor="middle" font-family="Manrope, Arial, sans-serif" font-size="42" font-weight="800" fill="#21436a">Agro Store</text>
  <text x="320" y="604" text-anchor="middle" font-family="Manrope, Arial, sans-serif" font-size="22" font-weight="700" fill="#68809b">Image unavailable</text>
</svg>
