<svg width="512" height="512" viewBox="0 0 512 512" fill="none" xmlns="http://www.w3.org/2000/svg">
  <defs>
    <linearGradient id="ringGradient" x1="78" y1="78" x2="434" y2="434" gradientUnits="userSpaceOnUse">
      <stop offset="0" stop-color="#9BFF31"/>
      <stop offset="0.5" stop-color="#23E7B8"/>
      <stop offset="1" stop-color="#2AB8FF"/>
    </linearGradient>
    <linearGradient id="leafGradient" x1="86" y1="220" x2="224" y2="386" gradientUnits="userSpaceOnUse">
      <stop offset="0" stop-color="#D9FF3F"/>
      <stop offset="1" stop-color="#38C124"/>
    </linearGradient>
    <linearGradient id="faceGradient" x1="238" y1="132" x2="392" y2="332" gradientUnits="userSpaceOnUse">
      <stop offset="0" stop-color="#F9FDFF"/>
      <stop offset="0.55" stop-color="#DDEBFF"/>
      <stop offset="1" stop-color="#AFC4E6"/>
    </linearGradient>
    <radialGradient id="glowGradient" cx="0" cy="0" r="1" gradientUnits="userSpaceOnUse" gradientTransform="translate(256 256) rotate(90) scale(232)">
      <stop offset="0" stop-color="#2FE0FF" stop-opacity="0.25"/>
      <stop offset="0.55" stop-color="#6DFF45" stop-opacity="0.16"/>
      <stop offset="1" stop-color="#0B1431" stop-opacity="0"/>
    </radialGradient>
    <filter id="softGlow" x="8" y="8" width="496" height="496" filterUnits="userSpaceOnUse" color-interpolation-filters="sRGB">
      <feGaussianBlur stdDeviation="18"/>
    </filter>
  </defs>

  <circle cx="256" cy="256" r="208" fill="url(#glowGradient)"/>
  <circle cx="256" cy="256" r="186" stroke="url(#ringGradient)" stroke-width="14"/>
  <path d="M108 170C154 110 223 76 303 82" stroke="url(#ringGradient)" stroke-width="13" stroke-linecap="round"/>
  <path d="M119 355C90 315 76 267 82 216" stroke="url(#ringGradient)" stroke-width="13" stroke-linecap="round"/>
  <path d="M329 82C375 91 414 118 442 157" stroke="url(#ringGradient)" stroke-width="13" stroke-linecap="round"/>
  <path d="M442 349C414 389 373 419 321 429" stroke="url(#ringGradient)" stroke-width="13" stroke-linecap="round"/>
  <path d="M174 414C220 432 269 435 315 425" stroke="url(#ringGradient)" stroke-width="13" stroke-linecap="round"/>

  <g opacity="0.96">
    <circle cx="155" cy="165" r="12" fill="#63FF57"/>
    <circle cx="339" cy="110" r="12" fill="#23E7B8"/>
    <circle cx="407" cy="205" r="12" fill="#2AB8FF"/>
    <circle cx="411" cy="286" r="12" fill="#2AB8FF"/>
    <circle cx="364" cy="370" r="12" fill="#23E7B8"/>
    <circle cx="141" cy="322" r="12" fill="#63FF57"/>
  </g>

  <g opacity="0.75">
    <path d="M90 244H170" stroke="#53FF6D" stroke-width="7" stroke-linecap="round"/>
    <path d="M94 274H154" stroke="#53FF6D" stroke-width="7" stroke-linecap="round"/>
    <path d="M356 181H430" stroke="#2FE0FF" stroke-width="7" stroke-linecap="round"/>
    <path d="M376 332H440" stroke="#2FE0FF" stroke-width="7" stroke-linecap="round"/>
  </g>

  <g transform="translate(52 82)">
    <path d="M61 246C57 166 112 109 179 114C175 197 128 269 61 246Z" fill="url(#leafGradient)"/>
    <path d="M128 248C119 187 148 139 194 126C200 188 177 242 128 248Z" fill="url(#leafGradient)"/>
    <path d="M132 140C112 167 93 196 73 226" stroke="#123F1A" stroke-width="6" stroke-linecap="round"/>
    <path d="M168 151C152 181 144 204 132 234" stroke="#123F1A" stroke-width="6" stroke-linecap="round"/>
    <path d="M87 180C110 184 127 191 145 205" stroke="#123F1A" stroke-width="5" stroke-linecap="round"/>

    <g transform="translate(122 16)">
      <path d="M121 45C172 31 217 53 239 89C253 112 260 139 260 171C260 222 231 265 184 291C154 307 116 309 90 300C123 284 145 257 152 223C158 193 149 165 124 142C102 122 70 112 42 114C56 84 82 57 121 45Z" fill="url(#faceGradient)"/>
      <path d="M67 136C102 120 136 127 157 148C176 167 185 194 180 223C174 258 148 286 107 301C70 315 33 308 4 281C20 250 28 209 30 171C31 139 43 116 67 136Z" fill="#07152D"/>
      <path d="M83 117L132 69" stroke="#18D7A8" stroke-width="12" stroke-linecap="round"/>
      <path d="M52 155H115" stroke="#18D7A8" stroke-width="12" stroke-linecap="round"/>
      <path d="M53 193H126" stroke="#18D7A8" stroke-width="12" stroke-linecap="round"/>
      <circle cx="110" cy="155" r="30" fill="#06112A" stroke="#26E3C5" stroke-width="8"/>
      <circle cx="110" cy="155" r="13" fill="#8CFF3B"/>
      <path d="M163 165C179 155 199 154 214 163" stroke="#8DFF31" stroke-width="9" stroke-linecap="round"/>
      <path d="M148 81C172 60 207 57 235 73" stroke="#17365A" stroke-width="10" stroke-linecap="round"/>
      <path d="M132 93C165 70 210 71 239 95" stroke="#17365A" stroke-width="10" stroke-linecap="round"/>
      <path d="M186 203C200 214 203 231 194 245" stroke="#17365A" stroke-width="7" stroke-linecap="round"/>
      <path d="M147 257C177 270 206 270 231 261" stroke="#17365A" stroke-width="7" stroke-linecap="round"/>
    </g>
  </g>

  <g filter="url(#softGlow)" opacity="0.35">
    <circle cx="334" cy="112" r="18" fill="#2AE2FF"/>
    <circle cx="155" cy="165" r="16" fill="#78FF4D"/>
  </g>
</svg>
